<svg width="296" height="64" viewBox="0 0 1046 226" xmlns="http://www.w3.org/2000/svg" fill-rule="evenodd" clip-rule="evenodd" stroke-linejoin="round" stroke-miterlimit="2"><g transform="translate(-94.05 -286.916)"><path fill="none" d="M94.05 286.916H1139.9V512H94.05z"/><clipPath id="a"><path d="M94.05 286.916H1139.9V512H94.05z"/></clipPath><g clip-path="url(#a)"><path d="M396.21 301.447c0-7.514-6.1-13.615-13.615-13.615h-274.88c-7.515 0-13.615 6.1-13.615 13.615v27.23c0 7.513 6.1 13.614 13.614 13.614h274.881c7.514 0 13.615-6.1 13.615-13.615v-27.23z" fill="#916e68"/><path fill="#baa093" d="M94.1 330.28h302.11v182.636H94.1z"/><path fill="#baa093" d="M94.1 342.291h302.11v170.625H94.1z"/><path d="M396.21 330.28v182.636H94.1L396.21 330.28z" fill="#b39180"/><path d="M571.516 474.5c-5.46 2.145-10.92 3.9-15.99 4.875-5.265 1.17-10.53 1.755-16.185 1.755-8.97 0-16.77-1.365-23.79-3.9-6.825-2.73-12.675-6.63-17.355-11.895-4.68-5.07-8.385-11.7-10.725-19.305-2.535-7.8-3.705-16.77-3.705-26.91 0-10.53 1.365-19.89 4.095-27.885 2.535-8.19 6.435-15.21 11.31-20.67 5.07-5.655 10.92-9.945 18.135-12.87 7.02-2.925 15.015-4.485 23.79-4.485 2.925 0 5.46 0 7.995.195s5.07.39 7.41.78c2.34.195 4.875.78 7.41 1.365 2.34.585 5.07 1.17 7.605 2.145V380.9c-5.265-2.535-10.53-4.29-15.405-5.46-4.875-.975-9.36-1.56-13.26-1.56-5.85 0-10.92.975-15.21 3.12-4.095 2.145-7.605 5.265-10.335 8.97-2.73 3.9-4.68 8.385-5.85 13.845-1.365 5.265-1.95 11.115-1.95 17.355 0 6.825.585 12.87 1.95 18.135 1.365 5.265 3.315 9.75 6.045 13.455s6.24 6.435 10.53 8.385c4.095 1.95 9.165 2.925 15.015 2.925 2.145 0 4.485-.195 6.825-.585 2.535-.39 4.875-.975 7.41-1.755 2.535-.585 5.07-1.365 7.41-2.34 2.535-.975 4.68-1.755 6.825-2.73v21.84zM682.628 430.235c0 7.605-1.17 14.625-3.315 20.865-2.145 6.435-5.265 11.7-9.36 16.185-4.095 4.68-8.97 7.995-14.82 10.53-6.045 2.535-12.675 3.705-20.28 3.705-7.215 0-13.65-.975-19.305-3.12-5.655-2.145-10.335-5.265-14.235-9.36-4.095-4.095-7.02-9.36-9.165-15.6-1.95-6.24-3.12-13.455-3.12-21.84 0-7.8 1.17-14.625 3.315-21.06 2.145-6.24 5.265-11.505 9.36-15.99 4.095-4.485 9.165-7.995 15.015-10.335 6.045-2.535 12.675-3.705 20.085-3.705 7.215 0 13.65 1.17 19.305 3.315 5.655 1.95 10.335 5.265 14.43 9.36 3.9 4.29 6.825 9.36 8.97 15.6 1.95 6.24 3.12 13.26 3.12 21.45zm-24.18.585c0-9.945-1.95-17.55-5.655-22.62-3.9-5.07-9.36-7.605-16.77-7.605-4.095 0-7.605.78-10.335 2.34-2.925 1.755-5.265 3.9-7.02 6.63-1.95 2.73-3.315 6.045-4.095 9.555-.975 3.705-1.365 7.605-1.365 11.895 0 10.14 2.145 17.745 6.045 22.815 4.095 5.07 9.75 7.605 16.77 7.605 3.9 0 7.215-.78 10.14-2.34 2.73-1.56 5.07-3.705 6.825-6.435 1.755-2.73 3.12-6.045 4.095-9.75.78-3.705 1.365-7.8 1.365-12.09zM778.92 475.67c-4.485 1.755-9.165 3.12-14.235 4.095-4.875.975-9.945 1.365-15.21 1.365-7.8 0-14.625-1.17-20.67-3.12-6.045-2.145-11.31-5.265-15.6-9.36-4.095-4.095-7.41-9.36-9.75-15.405-2.145-6.045-3.315-13.065-3.315-21.06 0-7.8 1.17-14.82 3.705-21.06 2.34-6.24 5.85-11.7 10.335-16.185 4.485-4.29 9.75-7.8 15.99-10.14 6.24-2.535 13.26-3.705 20.865-3.705 6.24 0 11.505.39 15.795.975 4.29.78 8.19 1.56 11.7 2.535v22.62c-3.9-1.95-8.19-3.51-12.87-4.68-4.485-.975-8.97-1.56-13.065-1.56-4.29 0-8.19.78-11.7 2.145-3.315 1.56-6.24 3.51-8.58 6.24-2.34 2.535-4.095 5.655-5.46 9.36-1.17 3.705-1.755 7.8-1.755 12.285 0 4.68.585 8.775 1.95 12.48s3.315 6.825 5.655 9.36a26.63 26.63 0 008.775 5.85c3.51 1.365 7.215 2.145 11.505 2.145 1.95 0 4.095-.195 6.435-.39 2.145-.39 4.485-.78 6.825-1.365 2.145-.585 4.485-1.17 6.63-1.755 2.145-.78 4.095-1.56 6.045-2.34v20.67zM892.177 430.235c0 7.605-1.17 14.625-3.315 20.865-2.145 6.435-5.265 11.7-9.36 16.185-4.095 4.68-8.97 7.995-14.82 10.53-6.045 2.535-12.675 3.705-20.28 3.705-7.215 0-13.65-.975-19.305-3.12-5.655-2.145-10.335-5.265-14.235-9.36-4.095-4.095-7.02-9.36-9.165-15.6-1.95-6.24-3.12-13.455-3.12-21.84 0-7.8 1.17-14.625 3.315-21.06 2.145-6.24 5.265-11.505 9.36-15.99 4.095-4.485 9.165-7.995 15.015-10.335 6.045-2.535 12.675-3.705 20.085-3.705 7.215 0 13.65 1.17 19.305 3.315 5.655 1.95 10.335 5.265 14.43 9.36 3.9 4.29 6.825 9.36 8.97 15.6 1.95 6.24 3.12 13.26 3.12 21.45zm-24.18.585c0-9.945-1.95-17.55-5.655-22.62-3.9-5.07-9.36-7.605-16.77-7.605-4.095 0-7.605.78-10.335 2.34-2.925 1.755-5.265 3.9-7.02 6.63-1.95 2.73-3.315 6.045-4.095 9.555-.975 3.705-1.365 7.605-1.365 11.895 0 10.14 2.145 17.745 6.045 22.815 4.095 5.07 9.75 7.605 16.77 7.605 3.9 0 7.215-.78 10.14-2.34 2.73-1.56 5.07-3.705 6.825-6.435 1.755-2.73 3.12-6.045 4.095-9.75.78-3.705 1.365-7.8 1.365-12.09zM969.944 479.375V416.39c0-10.725-3.9-15.99-11.895-15.99-3.9 0-7.605 1.56-11.31 4.875-3.51 3.12-7.215 7.41-11.31 12.87v61.23h-23.205v-96.72h20.085l.585 14.235c1.95-2.535 3.9-4.68 6.045-6.825 2.145-1.95 4.485-3.705 7.02-5.07a32.783 32.783 0 017.995-3.315c2.73-.78 6.045-1.17 9.555-1.17 4.875 0 9.36.78 12.87 2.535 3.705 1.56 6.825 3.9 9.36 6.825 2.535 2.925 4.29 6.435 5.46 10.53 1.365 4.29 1.95 8.97 1.95 14.04v64.935h-23.205zM1079.103 479.375l-.585-12.675c-1.95 2.145-4.095 4.095-6.435 6.045-2.145 1.755-4.68 3.315-7.215 4.68-2.73 1.365-5.655 2.34-8.775 3.12-3.12.585-6.63.975-10.335.975-4.875 0-9.36-.78-13.065-2.145s-6.825-3.51-9.36-6.045c-2.535-2.73-4.485-5.85-5.85-9.555a38.312 38.312 0 01-1.95-12.09c0-4.68.975-8.775 2.925-12.675 1.95-3.9 4.875-7.215 8.97-9.945 3.9-2.925 8.775-5.07 14.82-6.63 5.85-1.56 12.87-2.34 20.865-2.34h12.675v-5.85c0-2.535-.39-4.68-1.17-6.63-.585-2.145-1.755-3.705-3.315-5.265-1.56-1.365-3.51-2.34-6.045-3.12-2.535-.78-5.46-1.17-9.165-1.17-5.655 0-11.31.585-16.77 1.95-5.655 1.365-11.115 3.12-16.185 5.46v-18.525c4.68-1.95 9.945-3.315 15.99-4.68 6.045-1.17 12.285-1.755 18.915-1.755 7.215 0 13.26.78 18.525 2.145 5.07 1.365 9.36 3.315 12.675 6.045a24.68 24.68 0 017.41 10.335c1.56 4.095 2.34 8.775 2.34 14.235v66.105h-19.89zm-3.315-42.705h-14.235c-3.9 0-7.215.39-9.945 1.17-2.73.78-5.07 1.755-6.63 3.12-1.755 1.365-3.12 2.73-3.9 4.485-.78 1.755-1.17 3.705-1.17 5.655 0 3.9 1.365 7.02 3.9 8.97 2.535 2.145 6.045 3.12 10.335 3.12 3.315 0 6.63-1.17 10.14-3.51 3.51-2.34 7.215-5.655 11.505-10.14v-12.87z" fill="#4d4d4d" fill-rule="nonzero"/><g><path d="M216.346 476.462c2.586 0 4.686-2.1 4.686-4.687v-9.374c0-2.587-2.1-4.687-4.686-4.687h-84.85a4.69 4.69 0 00-4.688 4.687v9.374a4.69 4.69 0 004.687 4.687h84.85z" fill="#955a50"/></g><g><path d="M288.006 360.663a4.689 4.689 0 00-6.403-1.716l-8.118 4.687a4.689 4.689 0 00-1.716 6.403l60.092 104.082a4.689 4.689 0 006.403 1.716l8.118-4.687a4.689 4.689 0 001.716-6.403l-60.092-104.082z" fill="#fff9b3"/><path d="M370.027 426.763c2.587 0 4.687-2.1 4.687-4.687v-9.374c0-2.587-2.1-4.687-4.687-4.687H249.843a4.689 4.689 0 00-4.687 4.687v9.374c0 2.587 2.1 4.687 4.687 4.687h120.184z" fill="#fff9b3"/><path d="M348.097 370.036a4.689 4.689 0 00-1.715-6.403l-8.118-4.687a4.689 4.689 0 00-6.403 1.716L271.77 464.744a4.689 4.689 0 001.716 6.403l8.118 4.687a4.689 4.689 0 006.402-1.716l60.092-104.082z" fill="#fff9b3"/></g></g></g></svg>